<svg width="818" height="119" viewBox="0 0 818 119" fill="none" xmlns="http://www.w3.org/2000/svg">
<path d="M787.625 78.7692H797.471V88.6154H787.625V78.7692ZM807.317 78.7692H817.164V88.6154H807.317V78.7692ZM797.471 68.9231H807.317V78.7692H797.471V68.9231ZM797.471 59.0769H807.317V68.9231H797.471V59.0769ZM797.471 49.2308H807.317V59.0769H797.471V49.2308ZM797.471 39.3846H807.317V49.2308H797.471V39.3846ZM797.471 29.5385H807.317V39.3846H797.471V29.5385ZM797.471 19.6923H807.317V29.5385H797.471V19.6923ZM797.471 9.84615H807.317V19.6923H797.471V9.84615ZM807.317 0H817.164V9.84615H807.317V0Z" fill="black"/>
<path d="M718.75 78.7692H728.596V88.6154H718.75V78.7692ZM728.596 68.9231H738.442V78.7692H728.596V68.9231ZM728.596 59.0769H738.442V68.9231H728.596V59.0769ZM728.596 49.2308H738.442V59.0769H728.596V49.2308ZM728.596 39.3846H738.442V49.2308H728.596V39.3846ZM738.442 78.7692H748.289V88.6154H738.442V78.7692ZM748.289 78.7692H758.135V88.6154H748.289V78.7692ZM758.135 68.9231H767.981V78.7692H758.135V68.9231ZM758.135 59.0769H767.981V68.9231H758.135V59.0769ZM758.135 49.2308H767.981V59.0769H758.135V49.2308ZM758.135 39.3846H767.981V49.2308H758.135V39.3846ZM738.442 29.5385H748.289V39.3846H738.442V29.5385ZM748.289 29.5385H758.135V39.3846H748.289V29.5385ZM767.981 29.5385H777.827V39.3846H767.981V29.5385Z" fill="black"/>
<path d="M649.875 78.7692H659.721V88.6154H649.875V78.7692ZM659.721 68.9231H669.567V78.7692H659.721V68.9231ZM659.721 59.0769H669.567V68.9231H659.721V59.0769ZM659.721 49.2308H669.567V59.0769H659.721V49.2308ZM659.721 39.3846H669.567V49.2308H659.721V39.3846ZM669.567 78.7692H679.414V88.6154H669.567V78.7692ZM679.414 78.7692H689.26V88.6154H679.414V78.7692ZM689.26 68.9231H699.106V78.7692H689.26V68.9231ZM689.26 59.0769H699.106V68.9231H689.26V59.0769ZM689.26 49.2308H699.106V59.0769H689.26V49.2308ZM689.26 39.3846H699.106V49.2308H689.26V39.3846ZM669.567 29.5385H679.414V39.3846H669.567V29.5385ZM679.414 29.5385H689.26V39.3846H679.414V29.5385ZM699.106 29.5385H708.952V39.3846H699.106V29.5385Z" fill="black"/>
<path d="M630.164 68.9231H640.01V78.7692H630.164V68.9231ZM620.317 78.7692H630.164V88.6154H620.317V78.7692ZM610.471 68.9231H620.317V78.7692H610.471V68.9231ZM610.471 59.0769H620.317V68.9231H610.471V59.0769ZM610.471 49.2308H620.317V59.0769H610.471V49.2308ZM610.471 39.3846H620.317V49.2308H610.471V39.3846ZM600.625 29.5384H610.471V39.3846H600.625V29.5384ZM620.317 29.5384H630.164V39.3846H620.317V29.5384ZM610.471 19.6923H620.317V29.5384H610.471V19.6923ZM620.317 9.84613H630.164V19.6923H620.317V9.84613ZM610.471 29.5384H620.317V39.3846H610.471V29.5384ZM630.164 29.5384H640.01V39.3846H630.164V29.5384Z" fill="black"/>
<path d="M561.221 78.7692H571.067V88.6154H561.221V78.7692ZM580.914 78.7692H590.76V88.6154H580.914V78.7692ZM571.067 68.9231H580.914V78.7692H571.067V68.9231ZM571.067 59.0769H580.914V68.9231H571.067V59.0769ZM571.067 49.2308H580.914V59.0769H571.067V49.2308ZM571.067 39.3846H580.914V49.2308H571.067V39.3846ZM561.221 29.5385H571.067V39.3846H561.221V29.5385ZM551.375 39.3846H561.221V49.2308H551.375V39.3846ZM571.067 0H580.914V9.84615H571.067V0ZM580.914 29.5385H590.76V39.3846H580.914V29.5385Z" fill="black"/>
<path d="M443.125 39.3846H452.971V49.2308H443.125V39.3846ZM452.971 29.5385H462.817V39.3846H452.971V29.5385ZM462.817 39.3846H472.663V49.2308H462.817V39.3846ZM462.817 49.2308H472.663V59.0769H462.817V49.2308ZM462.817 59.0769H472.663V68.9231H462.817V59.0769ZM462.817 68.9231H472.663V78.7692H462.817V68.9231ZM452.971 78.7692H462.817V88.6154H452.971V78.7692ZM472.663 78.7692H482.51V88.6154H472.663V78.7692ZM482.51 78.7692H492.356V88.6154H482.51V78.7692ZM472.663 29.5385H482.51V39.3846H472.663V29.5385ZM482.51 29.5385H492.356V39.3846H482.51V29.5385ZM492.356 39.3846H502.202V49.2308H492.356V39.3846ZM492.356 49.2308H502.202V59.0769H492.356V49.2308ZM492.356 59.0769H502.202V68.9231H492.356V59.0769ZM492.356 68.9231H502.202V78.7692H492.356V68.9231ZM502.202 29.5385H512.048V39.3846H502.202V29.5385ZM512.048 29.5385H521.894V39.3846H512.048V29.5385ZM502.202 78.7692H512.048V88.6154H502.202V78.7692ZM512.048 78.7692H521.894V88.6154H512.048V78.7692ZM521.894 68.9231H531.74V78.7692H521.894V68.9231ZM521.894 59.0769H531.74V68.9231H521.894V59.0769ZM521.894 49.2308H531.74V59.0769H521.894V49.2308ZM521.894 39.3846H531.74V49.2308H521.894V39.3846ZM531.74 29.5385H541.587V39.3846H531.74V29.5385Z" fill="black"/>
<path d="M403.721 78.7692H413.567V88.6154H403.721V78.7692ZM423.413 78.7692H433.26V88.6154H423.413V78.7692ZM413.567 68.9231H423.413V78.7692H413.567V68.9231ZM413.567 59.0769H423.413V68.9231H413.567V59.0769ZM413.567 49.2308H423.413V59.0769H413.567V49.2308ZM413.567 39.3846H423.413V49.2308H413.567V39.3846ZM403.721 29.5385H413.567V39.3846H403.721V29.5385ZM393.875 39.3846H403.721V49.2308H393.875V39.3846ZM413.567 0H423.413V9.84615H413.567V0ZM423.413 29.5385H433.26V39.3846H423.413V29.5385Z" fill="black"/>
<path d="M275.75 9.84615H285.596V19.6923H275.75V9.84615ZM275.75 19.6923H285.596V29.5385H275.75V19.6923ZM285.596 19.6923H295.442V29.5385H285.596V19.6923ZM295.442 29.5385H305.288V39.3846H295.442V29.5385ZM295.442 39.3846H305.288V49.2308H295.442V39.3846ZM285.596 39.3846H295.442V49.2308H285.596V39.3846ZM334.827 78.7692H344.673V88.6154H334.827V78.7692ZM315.135 39.3846H324.981V49.2308H315.135V39.3846ZM315.135 29.5385H324.981V39.3846H315.135V29.5385ZM285.596 0H295.442V9.84615H285.596V0ZM295.442 0H305.288V9.84615H295.442V0ZM344.673 29.5385H354.519V39.3846H344.673V29.5385ZM344.673 39.3846H354.519V49.2308H344.673V39.3846ZM344.673 49.2308H354.519V59.0769H344.673V49.2308ZM344.673 59.0769H354.519V68.9231H344.673V59.0769ZM374.212 29.5385H384.058V39.3846H374.212V29.5385ZM374.212 39.3846H384.058V49.2308H374.212V39.3846ZM374.212 49.2308H384.058V59.0769H374.212V49.2308ZM374.212 59.0769H384.058V68.9231H374.212V59.0769ZM344.673 68.9231H354.519V78.7692H344.673V68.9231ZM374.212 68.9231H384.058V78.7692H374.212V68.9231ZM364.365 78.7692H374.212V88.6154H364.365V78.7692ZM354.519 78.7692H364.365V88.6154H354.519V78.7692ZM305.288 9.84615H315.135V19.6923H305.288V9.84615ZM305.288 19.6923H315.135V29.5385H305.288V19.6923ZM315.135 0H324.981V9.84615H315.135V0ZM364.365 19.6923H374.212V29.5385H364.365V19.6923ZM364.365 9.84615H374.212V19.6923H364.365V9.84615ZM334.827 19.6923H344.673V29.5385H334.827V19.6923ZM334.827 9.84615H344.673V19.6923H334.827V9.84615ZM344.673 0H354.519V9.84615H344.673V0ZM374.212 0H384.058V9.84615H374.212V0ZM324.981 0H334.827V9.84615H324.981V0ZM354.519 0H364.365V9.84615H354.519V0ZM315.135 49.2308H324.981V59.0769H315.135V49.2308ZM285.596 78.7692H295.442V88.6154H285.596V78.7692ZM285.596 68.9231H295.442V78.7692H285.596V68.9231ZM295.442 59.0769H305.288V68.9231H295.442V59.0769ZM305.288 59.0769H315.135V68.9231H305.288V59.0769ZM315.135 59.0769H324.981V68.9231H315.135V59.0769ZM324.981 68.9231H334.827V78.7692H324.981V68.9231Z" fill="black"/>
<path d="M167.375 78.7692H177.221V88.6154H167.375V78.7692ZM187.067 78.7692H196.913V88.6154H187.067V78.7692ZM196.913 78.7692H206.76V88.6154H196.913V78.7692ZM177.221 68.9231H187.067V78.7692H177.221V68.9231ZM177.221 59.0769H187.067V68.9231H177.221V59.0769ZM177.221 49.2308H187.067V59.0769H177.221V49.2308ZM177.221 39.3846H187.067V49.2308H177.221V39.3846ZM187.067 29.5385H196.913V39.3846H187.067V29.5385ZM196.913 29.5385H206.76V39.3846H196.913V29.5385ZM206.76 39.3846H216.606V49.2308H206.76V39.3846ZM206.76 49.2308H216.606V59.0769H206.76V49.2308ZM196.913 49.2308H206.76V59.0769H196.913V49.2308ZM187.067 49.2308H196.913V59.0769H187.067V49.2308ZM206.76 68.9231H216.606V78.7692H206.76V68.9231Z" fill="black"/>
<path d="M98.5 78.7692H108.346V88.6154H98.5V78.7692ZM108.346 68.9231H118.192V78.7692H108.346V68.9231ZM108.346 59.0769H118.192V68.9231H108.346V59.0769ZM108.346 49.2308H118.192V59.0769H108.346V49.2308ZM108.346 39.3846H118.192V49.2308H108.346V39.3846ZM108.346 29.5385H118.192V39.3846H108.346V29.5385ZM108.346 19.6923H118.192V29.5385H108.346V19.6923ZM108.346 9.84615H118.192V19.6923H108.346V9.84615ZM118.192 0H128.038V9.84615H118.192V0ZM118.192 39.3846H128.038V49.2308H118.192V39.3846ZM128.038 29.5385H137.885V39.3846H128.038V29.5385ZM147.731 29.5385H157.577V39.3846H147.731V29.5385ZM137.885 39.3846H147.731V49.2308H137.885V39.3846ZM137.885 49.2308H147.731V59.0769H137.885V49.2308ZM137.885 59.0769H147.731V68.9231H137.885V59.0769ZM137.885 68.9231H147.731V78.7692H137.885V68.9231ZM137.885 78.7692H147.731V88.6154H137.885V78.7692ZM137.885 88.6154H147.731V98.4615H137.885V88.6154ZM128.038 98.4615H137.885V108.308H128.038V98.4615ZM118.192 108.308H128.038V118.154H118.192V108.308ZM118.192 78.7692H128.038V88.6154H118.192V78.7692Z" fill="black"/>
<path d="M0 9.84615H9.84615V19.6923H0V9.84615ZM0 19.6923H9.84615V29.5385H0V19.6923ZM9.84615 0H19.6923V9.84615H9.84615V0ZM19.6923 0H29.5385V9.84615H19.6923V0ZM29.5385 0H39.3846V9.84615H29.5385V0ZM39.3846 0H49.2308V9.84615H39.3846V0ZM9.84615 29.5385H19.6923V39.3846H9.84615V29.5385ZM19.6923 29.5385H29.5385V39.3846H19.6923V29.5385ZM39.3846 9.84615H49.2308V19.6923H39.3846V9.84615ZM49.2308 9.84615H59.0769V19.6923H49.2308V9.84615ZM59.0769 9.84615H68.9231V19.6923H59.0769V9.84615ZM49.2308 29.5385H59.0769V39.3846H49.2308V29.5385ZM39.3846 29.5385H49.2308V39.3846H39.3846V29.5385ZM39.3846 39.3846H49.2308V49.2308H39.3846V39.3846ZM49.2308 49.2308H59.0769V59.0769H49.2308V49.2308ZM49.2308 59.0769H59.0769V68.9231H49.2308V59.0769ZM39.3846 59.0769H49.2308V68.9231H39.3846V59.0769ZM29.5385 68.9231H39.3846V78.7692H29.5385V68.9231ZM39.3846 78.7692H49.2308V88.6154H39.3846V78.7692ZM49.2308 78.7692H59.0769V88.6154H49.2308V78.7692ZM59.0769 78.7692H68.9231V88.6154H59.0769V78.7692ZM68.9231 68.9231H78.7692V78.7692H68.9231V68.9231ZM78.7692 0H88.6154V9.84615H78.7692V0ZM68.9231 9.84615H78.7692V19.6923H68.9231V9.84615ZM19.6923 78.7692H29.5385V88.6154H19.6923V78.7692Z" fill="black"/>
</svg>
